<?xml version="1.0" encoding="utf-8"?>
<!-- Generator: Adobe Illustrator 15.0.0, SVG Export Plug-In . SVG Version: 6.00 Build 0)  -->
<!DOCTYPE svg PUBLIC "-//W3C//DTD SVG 1.1//EN" "http://www.w3.org/Graphics/SVG/1.1/DTD/svg11.dtd">
<svg version="1.1" id="Layer_1" xmlns="http://www.w3.org/2000/svg" xmlns:xlink="http://www.w3.org/1999/xlink" x="0px" y="0px"
	 width="26px" height="26px" viewBox="0 0 26 26" enable-background="new 0 0 26 26" xml:space="preserve">
<g>
	<path d="M19.002,9.261l0.659-0.66l0.196,0.195c0.182,0.182,0.477,0.182,0.657,0c0.183-0.181,0.183-0.476,0-0.658l-0.986-0.987
		c-0.182-0.182-0.477-0.182-0.658,0c-0.182,0.183-0.182,0.477,0,0.659l0.218,0.216l-0.648,0.648
		c-1.129-1.043-2.588-1.731-4.203-1.89V6.179h0.469c0.436,0,0.789-0.354,0.789-0.789c0-0.436-0.354-0.79-0.789-0.79h-2.368
		c-0.436,0-0.79,0.354-0.79,0.79c0,0.436,0.354,0.789,0.79,0.789h0.52v0.602h-0.029c-1.709,0.163-3.245,0.917-4.4,2.058L8.026,9.274
		c-1.091,1.269-1.755,2.915-1.755,4.721c0,4.003,3.246,7.249,7.249,7.249c4.005,0,7.249-3.246,7.249-7.249
		C20.77,12.183,20.1,10.531,19.002,9.261z M13.511,20.004c-3.326,0-6.022-2.696-6.022-6.022c0-3.326,2.697-6.022,6.022-6.022
		c3.325,0,6.022,2.696,6.022,6.022C19.533,17.308,16.836,20.004,13.511,20.004z"/>
	<path d="M13.988,13.443V9.648l-0.438-0.702l-0.498,0.702v3.795c-0.273,0.161-0.458,0.455-0.458,0.795
		c0,0.511,0.415,0.925,0.925,0.925s0.926-0.414,0.926-0.925C14.446,13.898,14.262,13.604,13.988,13.443z"/>
</g>
</svg>
